<?xml version="1.0" encoding="UTF-8" standalone="no"?>
<!DOCTYPE svg PUBLIC "-//W3C//DTD SVG 1.1//EN"
 "http://www.w3.org/Graphics/SVG/1.1/DTD/svg11.dtd">
<!-- Generated by graphviz version 2.40.1 (20161225.0304)
 -->
<!-- Title: architecture Pages: 1 -->
<svg width="757pt" height="355pt"
 viewBox="0.00 0.00 756.95 354.83" xmlns="http://www.w3.org/2000/svg" xmlns:xlink="http://www.w3.org/1999/xlink">
<g id="graph0" class="graph" transform="scale(1 1) rotate(0) translate(4 350.8313)">
<title>architecture</title>
<polygon fill="#ffffff" stroke="transparent" points="-4,4 -4,-350.8313 752.9528,-350.8313 752.9528,4 -4,4"/>
<!-- console -->
<g id="node1" class="node">
<title>console</title>
<ellipse fill="#ffffe0" stroke="#d3d3d3" cx="360.9232" cy="-328.8313" rx="40.5693" ry="18"/>
<text text-anchor="middle" x="360.9232" y="-324.6313" font-family="Times,serif" font-size="14.00" fill="#000000">console</text>
</g>
<!-- viewCalendar -->
<g id="node2" class="node">
<title>viewCalendar</title>
<ellipse fill="#ffffff" stroke="#d3d3d3" cx="64.9232" cy="-256.8313" rx="64.8465" ry="18"/>
<text text-anchor="middle" x="64.9232" y="-252.6313" font-family="Times,serif" font-size="14.00" fill="#000000">calendar view</text>
</g>
<!-- console&#45;&#45;viewCalendar -->
<g id="edge1" class="edge">
<title>console&#45;&#45;viewCalendar</title>
<path fill="none" stroke="#c0c0c0" d="M325.2187,-320.1464C272.4009,-307.2988 173.2936,-283.1917 113.7815,-268.7157"/>
</g>
<!-- viewDocument -->
<g id="node3" class="node">
<title>viewDocument</title>
<ellipse fill="#ffffff" stroke="#d3d3d3" cx="217.9232" cy="-256.8313" rx="70.1087" ry="18"/>
<text text-anchor="middle" x="217.9232" y="-252.6313" font-family="Times,serif" font-size="14.00" fill="#000000">document view</text>
</g>
<!-- console&#45;&#45;viewDocument -->
<g id="edge2" class="edge">
<title>console&#45;&#45;viewDocument</title>
<path fill="none" stroke="#c0c0c0" d="M334.026,-315.2886C310.1589,-303.2716 275.2518,-285.696 249.9498,-272.9566"/>
</g>
<!-- viewGraph -->
<g id="node4" class="node">
<title>viewGraph</title>
<ellipse fill="#ffffff" stroke="#d3d3d3" cx="360.9232" cy="-256.8313" rx="54.4166" ry="18"/>
<text text-anchor="middle" x="360.9232" y="-252.6313" font-family="Times,serif" font-size="14.00" fill="#000000">graph view</text>
</g>
<!-- console&#45;&#45;viewGraph -->
<g id="edge3" class="edge">
<title>console&#45;&#45;viewGraph</title>
<path fill="none" stroke="#c0c0c0" d="M360.9232,-310.6626C360.9232,-299.8313 360.9232,-286.1189 360.9232,-275.2446"/>
</g>
<!-- viewProperties -->
<g id="node5" class="node">
<title>viewProperties</title>
<ellipse fill="#ffffff" stroke="#d3d3d3" cx="503.9232" cy="-256.8313" rx="70.665" ry="18"/>
<text text-anchor="middle" x="503.9232" y="-252.6313" font-family="Times,serif" font-size="14.00" fill="#000000">properties view</text>
</g>
<!-- console&#45;&#45;viewProperties -->
<g id="edge4" class="edge">
<title>console&#45;&#45;viewProperties</title>
<path fill="none" stroke="#c0c0c0" d="M387.8204,-315.2886C411.6875,-303.2716 446.5947,-285.696 471.8966,-272.9566"/>
</g>
<!-- viewTable -->
<g id="node6" class="node">
<title>viewTable</title>
<ellipse fill="#ffffff" stroke="#d3d3d3" cx="643.9232" cy="-256.8313" rx="50.9804" ry="18"/>
<text text-anchor="middle" x="643.9232" y="-252.6313" font-family="Times,serif" font-size="14.00" fill="#000000">table view</text>
</g>
<!-- console&#45;&#45;viewTable -->
<g id="edge5" class="edge">
<title>console&#45;&#45;viewTable</title>
<path fill="none" stroke="#c0c0c0" d="M397.3845,-320.6375C441.6693,-310.5394 518.5604,-292.5358 583.9232,-274.8313 590.8513,-272.9547 598.1951,-270.8493 605.2798,-268.7579"/>
</g>
<!-- neomem -->
<g id="node7" class="node">
<title>neomem</title>
<ellipse fill="#adff2f" stroke="#d3d3d3" cx="360.9232" cy="-184.8313" rx="44.0833" ry="18"/>
<text text-anchor="middle" x="360.9232" y="-180.6313" font-family="Times,serif" font-size="14.00" fill="#000000">neomem</text>
</g>
<!-- viewCalendar&#45;&#45;neomem -->
<g id="edge6" class="edge">
<title>viewCalendar&#45;&#45;neomem</title>
<path fill="none" stroke="#c0c0c0" d="M113.8016,-244.9419C172.4223,-230.6829 269.4401,-207.0839 322.8088,-194.1024"/>
</g>
<!-- viewDocument&#45;&#45;neomem -->
<g id="edge7" class="edge">
<title>viewDocument&#45;&#45;neomem</title>
<path fill="none" stroke="#c0c0c0" d="M250.0152,-240.6731C274.8837,-228.1519 309.0018,-210.9735 332.8057,-198.9884"/>
</g>
<!-- viewGraph&#45;&#45;neomem -->
<g id="edge8" class="edge">
<title>viewGraph&#45;&#45;neomem</title>
<path fill="none" stroke="#c0c0c0" d="M360.9232,-238.6626C360.9232,-227.8313 360.9232,-214.1189 360.9232,-203.2446"/>
</g>
<!-- viewProperties&#45;&#45;neomem -->
<g id="edge9" class="edge">
<title>viewProperties&#45;&#45;neomem</title>
<path fill="none" stroke="#c0c0c0" d="M471.8312,-240.6731C446.9627,-228.1519 412.8447,-210.9735 389.0408,-198.9884"/>
</g>
<!-- viewTable&#45;&#45;neomem -->
<g id="edge10" class="edge">
<title>viewTable&#45;&#45;neomem</title>
<path fill="none" stroke="#c0c0c0" d="M605.2798,-244.9047C598.1951,-242.8132 590.8513,-240.7079 583.9232,-238.8313 519.7139,-221.4392 444.3795,-203.7585 399.7592,-193.567"/>
</g>
<!-- driverChrome -->
<g id="node8" class="node">
<title>driverChrome</title>
<ellipse fill="#add8e6" stroke="#d3d3d3" cx="83.9232" cy="-112.8313" rx="65.43" ry="18"/>
<text text-anchor="middle" x="83.9232" y="-108.6313" font-family="Times,serif" font-size="14.00" fill="#000000">chrome driver</text>
</g>
<!-- neomem&#45;&#45;driverChrome -->
<g id="edge11" class="edge">
<title>neomem&#45;&#45;driverChrome</title>
<path fill="none" stroke="#c0c0c0" d="M323.5658,-175.121C273.9473,-162.2238 186.2476,-139.4282 131.8172,-125.2803"/>
</g>
<!-- driverFilesys -->
<g id="node9" class="node">
<title>driverFilesys</title>
<ellipse fill="#add8e6" stroke="#d3d3d3" cx="228.9232" cy="-112.8313" rx="61.9331" ry="18"/>
<text text-anchor="middle" x="228.9232" y="-108.6313" font-family="Times,serif" font-size="14.00" fill="#000000">filesys driver</text>
</g>
<!-- neomem&#45;&#45;driverFilesys -->
<g id="edge12" class="edge">
<title>neomem&#45;&#45;driverFilesys</title>
<path fill="none" stroke="#c0c0c0" d="M334.2111,-170.261C312.2137,-158.2624 281.0615,-141.2703 258.3515,-128.8831"/>
</g>
<!-- driverJson -->
<g id="node10" class="node">
<title>driverJson</title>
<ellipse fill="#add8e6" stroke="#d3d3d3" cx="360.9232" cy="-112.8313" rx="52.7079" ry="18"/>
<text text-anchor="middle" x="360.9232" y="-108.6313" font-family="Times,serif" font-size="14.00" fill="#000000">json driver</text>
</g>
<!-- neomem&#45;&#45;driverJson -->
<g id="edge13" class="edge">
<title>neomem&#45;&#45;driverJson</title>
<path fill="none" stroke="#c0c0c0" d="M360.9232,-166.6626C360.9232,-155.8313 360.9232,-142.1189 360.9232,-131.2446"/>
</g>
<!-- driverMarkdown -->
<g id="node11" class="node">
<title>driverMarkdown</title>
<ellipse fill="#add8e6" stroke="#d3d3d3" cx="508.9232" cy="-112.8313" rx="77.6136" ry="18"/>
<text text-anchor="middle" x="508.9232" y="-108.6313" font-family="Times,serif" font-size="14.00" fill="#000000">markdown driver</text>
</g>
<!-- neomem&#45;&#45;driverMarkdown -->
<g id="edge14" class="edge">
<title>neomem&#45;&#45;driverMarkdown</title>
<path fill="none" stroke="#c0c0c0" d="M389.4591,-170.949C413.9866,-159.0167 449.3939,-141.7915 475.2935,-129.1917"/>
</g>
<!-- driverOther -->
<g id="node12" class="node">
<title>driverOther</title>
<ellipse fill="#add8e6" stroke="#d3d3d3" cx="671.9232" cy="-112.8313" rx="67.1965" ry="18"/>
<text text-anchor="middle" x="671.9232" y="-108.6313" font-family="Times,serif" font-size="14.00" fill="#000000">other drivers...</text>
</g>
<!-- neomem&#45;&#45;driverOther -->
<g id="edge15" class="edge">
<title>neomem&#45;&#45;driverOther</title>
<path fill="none" stroke="#c0c0c0" d="M399.6144,-176.024C446.2053,-165.3991 526.8231,-146.9532 595.9232,-130.8313 604.1102,-128.9212 612.7894,-126.8805 621.2422,-124.8845"/>
</g>
<!-- sourceChrome -->
<g id="node13" class="node">
<title>sourceChrome</title>
<ellipse fill="#e6e6fa" stroke="#d3d3d3" cx="83.9232" cy="-29.4156" rx="55.1069" ry="29.3315"/>
<text text-anchor="middle" x="83.9232" y="-33.6156" font-family="Times,serif" font-size="14.00" fill="#000000">bookmarks</text>
<text text-anchor="middle" x="83.9232" y="-16.8156" font-family="Times,serif" font-size="14.00" fill="#000000">json file</text>
</g>
<!-- driverChrome&#45;&#45;sourceChrome -->
<g id="edge16" class="edge">
<title>driverChrome&#45;&#45;sourceChrome</title>
<path fill="none" stroke="#c0c0c0" d="M83.9232,-94.7313C83.9232,-84.2856 83.9232,-70.8939 83.9232,-58.9588"/>
</g>
<!-- sourceFilesys -->
<g id="node14" class="node">
<title>sourceFilesys</title>
<ellipse fill="#e6e6fa" stroke="#d3d3d3" cx="228.9232" cy="-29.4156" rx="50.9561" ry="18"/>
<text text-anchor="middle" x="228.9232" y="-25.2156" font-family="Times,serif" font-size="14.00" fill="#000000">filesystem</text>
</g>
<!-- driverFilesys&#45;&#45;sourceFilesys -->
<g id="edge17" class="edge">
<title>driverFilesys&#45;&#45;sourceFilesys</title>
<path fill="none" stroke="#c0c0c0" d="M228.9232,-94.7313C228.9232,-80.7397 228.9232,-61.463 228.9232,-47.4803"/>
</g>
<!-- sourceJson -->
<g id="node15" class="node">
<title>sourceJson</title>
<ellipse fill="#e6e6fa" stroke="#d3d3d3" cx="360.9232" cy="-29.4156" rx="42.3317" ry="18"/>
<text text-anchor="middle" x="360.9232" y="-25.2156" font-family="Times,serif" font-size="14.00" fill="#000000">json file</text>
</g>
<!-- driverJson&#45;&#45;sourceJson -->
<g id="edge18" class="edge">
<title>driverJson&#45;&#45;sourceJson</title>
<path fill="none" stroke="#c0c0c0" d="M360.9232,-94.7313C360.9232,-80.7397 360.9232,-61.463 360.9232,-47.4803"/>
</g>
<!-- sourceMarkdown -->
<g id="node16" class="node">
<title>sourceMarkdown</title>
<ellipse fill="#e6e6fa" stroke="#d3d3d3" cx="508.9232" cy="-29.4156" rx="67.7372" ry="18"/>
<text text-anchor="middle" x="508.9232" y="-25.2156" font-family="Times,serif" font-size="14.00" fill="#000000">markdown file</text>
</g>
<!-- driverMarkdown&#45;&#45;sourceMarkdown -->
<g id="edge19" class="edge">
<title>driverMarkdown&#45;&#45;sourceMarkdown</title>
<path fill="none" stroke="#c0c0c0" d="M508.9232,-94.7313C508.9232,-80.7397 508.9232,-61.463 508.9232,-47.4803"/>
</g>
<!-- sourceOther -->
<g id="node17" class="node">
<title>sourceOther</title>
<ellipse fill="#e6e6fa" stroke="#d3d3d3" cx="671.9232" cy="-29.4156" rx="77.0591" ry="29.3315"/>
<text text-anchor="middle" x="671.9232" y="-33.6156" font-family="Times,serif" font-size="14.00" fill="#000000">email, gsheet,</text>
<text text-anchor="middle" x="671.9232" y="-16.8156" font-family="Times,serif" font-size="14.00" fill="#000000">postgres, xml, ...</text>
</g>
<!-- driverOther&#45;&#45;sourceOther -->
<g id="edge20" class="edge">
<title>driverOther&#45;&#45;sourceOther</title>
<path fill="none" stroke="#c0c0c0" d="M671.9232,-94.7313C671.9232,-84.2856 671.9232,-70.8939 671.9232,-58.9588"/>
</g>
</g>
</svg>
